<!--?xml version="1.0" standalone="no"?-->
              <svg id="sw-js-blob-svg" viewBox="0 0 100 100" xmlns="http://www.w3.org/2000/svg" version="1.1">
                    <defs> 
                        <linearGradient id="sw-gradient" x1="0" x2="1" y1="1" y2="0">
                            <stop id="stop1" stop-color="rgba(240, 249, 255, 1)" offset="0%"></stop>
                            <stop id="stop2" stop-color="rgba(240, 249, 255, 1)" offset="100%"></stop>
                        </linearGradient>
                    </defs>
                <path fill="url(#sw-gradient)" d="M12.4,-21.2C17.9,-18.2,25.5,-18.7,30.6,-15.7C35.7,-12.7,38.3,-6.4,36.7,-0.9C35,4.5,29.1,9,24.4,12.6C19.7,16.3,16.2,19.1,12.3,21.9C8.5,24.7,4.2,27.5,-0.9,29.1C-6.1,30.7,-12.2,31.1,-13.9,27.1C-15.7,23.1,-13.2,14.6,-13.2,9.4C-13.3,4.1,-15.8,2.1,-19.9,-2.4C-24.1,-6.9,-29.9,-13.7,-29.7,-18.7C-29.6,-23.8,-23.5,-27,-17.6,-29.7C-11.6,-32.4,-5.8,-34.6,-1.2,-32.5C3.4,-30.4,6.8,-24.1,12.4,-21.2Z" width="100%" height="100%" transform="translate(50 50)" stroke-width="0" style="transition: all 0.3s ease 0s;" stroke="url(#sw-gradient)"></path>
              </svg>