<?xml version="1.0" encoding="UTF-8"?>
<!-- Generated by Pixelmator Pro 3.6.9 -->
<svg width="512" height="350" viewBox="0 0 512 350" xmlns="http://www.w3.org/2000/svg">
    <path id="Path" fill="#ffffff" fill-rule="evenodd" stroke="none" d="M 0.999621 35.869232 C 0.982768 55.199188 16.639133 70.882874 35.969093 70.899719 L 265.968994 71.10025 C 285.29895 71.117096 300.982666 55.460724 300.999512 36.130768 L 301.000366 35.130768 C 301.017242 15.800812 285.36087 0.117126 266.030914 0.100281 L 36.030994 -0.10025 C 16.701035 -0.117096 1.017346 15.539276 1.000493 34.869232 Z"/>
    <path id="Rounded-Rectangle-copy" fill="#ffffff" fill-rule="evenodd" stroke="none" d="M 75 105 C 75 124.329971 90.670036 140 110 140 L 476 140 C 495.329956 140 511 124.329971 511 105 C 511 85.670044 495.329956 70 476 70 L 110 70 C 90.670036 70 75 85.670044 75 105 Z"/>
    <path id="Rounded-Rectangle-copy-2" fill="#ffffff" fill-rule="evenodd" stroke="none" d="M 1 175 C 1 194.329971 16.670033 210 36 210 L 403 210 C 422.329956 210 438 194.329971 438 175 C 438 155.670029 422.329956 140 403 140 L 36 140 C 16.670033 140 1 155.670029 1 175 Z"/>
    <path id="Rounded-Rectangle-copy-3" fill="#ffffff" fill-rule="evenodd" stroke="none" d="M 74 245 C 74 264.329956 89.670036 280 109 280 L 476 280 C 495.329956 280 511 264.329956 511 245 C 511 225.670029 495.329956 210 476 210 L 109 210 C 89.670036 210 74 225.670029 74 245 Z"/>
    <path id="Rounded-Rectangle-copy-4" fill="#ffffff" fill-rule="evenodd" stroke="none" d="M 29 315 C 29 334.329956 44.670033 350 64 350 L 431 350 C 450.329956 350 466 334.329956 466 315 C 466 295.670044 450.329956 280 431 280 L 64 280 C 44.670033 280 29 295.670044 29 315 Z"/>
    <path id="Circle" fill="#0e9c4a" fill-rule="evenodd" stroke="#000000" stroke-width="5" stroke-linecap="round" stroke-linejoin="round" d="M 297.095215 210.334183 C 372.388428 137.244507 414.870758 58.879333 391.982147 35.30069 C 369.093536 11.722015 289.501465 51.858612 214.208252 124.948288 C 138.915039 198.037964 96.432724 276.403137 119.321327 299.981781 C 142.20993 323.560455 221.802017 283.423828 297.095215 210.334183 Z"/>
    <path id="Circle-copy" fill="#e8f1f8" fill-rule="evenodd" stroke="#000000" stroke-width="5" stroke-linecap="round" stroke-linejoin="round" d="M 275.488678 188.554855 C 297.215576 167.463821 306.037659 141.310043 295.193329 130.138779 C 284.348999 118.967514 257.944794 127.009079 236.21788 148.100128 C 214.490982 169.191177 205.6689 195.34494 216.513229 206.516205 C 227.357559 217.687469 253.761765 209.645905 275.488678 188.554855 Z"/>
    <path id="Rectangle" fill="#000000" fill-rule="evenodd" stroke="none" d="M 358.380005 280.608734 L 362.637421 276.38092 L 153.869507 66.150452 L 149.612091 70.378235 Z"/>
    <path id="path1" fill="#f78721" fill-rule="evenodd" stroke="#000000" stroke-width="5" stroke-linecap="round" stroke-linejoin="round" d="M 101.530029 27.177124 C 95.477249 32.833344 95.155777 42.325378 100.812012 48.378174 L 115.536087 64.134521 C 118.137955 66.918793 125.972351 72.230927 134 73 C 143.423767 73.902863 153 70 153 70 C 153 70 155.631378 63.503265 155 56 C 154.288025 47.538879 150.153122 37.7948 147.155319 34.586823 L 132.431259 18.830475 C 126.775017 12.777679 117.28299 12.456238 111.230202 18.112457 Z"/>
    <path id="Path-copy" fill="#f78721" fill-rule="evenodd" stroke="#000000" stroke-width="5" stroke-linecap="round" stroke-linejoin="round" d="M 398.886261 332.713196 C 392.833496 338.369415 383.341461 338.047974 377.685211 331.995178 L 362.961151 316.238831 C 360.359283 313.454559 355.589355 305.278717 355.365173 297.217407 C 355.101959 287.75415 359.643768 278.463928 359.643768 278.463928 C 359.643768 278.463928 366.30365 276.278107 373.747009 277.41571 C 382.140564 278.698486 391.582581 283.483154 394.580383 286.691132 L 409.304443 302.447479 C 414.960693 308.500275 414.639191 317.992279 408.586426 323.648529 Z"/>
</svg>
